<mxfile host="app.diagrams.net" modified="2023-06-16T07:33:54.050Z" agent="Mozilla/5.0 (Macintosh; Intel Mac OS X 10_15_7) AppleWebKit/537.36 (KHTML, like Gecko) Chrome/114.0.0.0 Safari/537.36" etag="AXzhHnuMqql2ubpneK_n" version="21.3.7" type="device">
  <diagram id="aAfxqBnH6oHjJ7AiiS2I" name="第 1 页">
    <mxGraphModel dx="1553" dy="1045" grid="1" gridSize="10" guides="1" tooltips="1" connect="1" arrows="1" fold="1" page="1" pageScale="1" pageWidth="827" pageHeight="1169" math="0" shadow="0">
      <root>
        <mxCell id="0" />
        <mxCell id="1" parent="0" />
        <mxCell id="X76yBTJu6o985zxi9jEF-49" style="edgeStyle=orthogonalEdgeStyle;rounded=0;orthogonalLoop=1;jettySize=auto;html=1;exitX=0.5;exitY=0;exitDx=0;exitDy=0;entryX=0.523;entryY=1;entryDx=0;entryDy=0;entryPerimeter=0;" edge="1" parent="1" source="JCffVrnA2vNH0P2Vcq3t-1" target="X76yBTJu6o985zxi9jEF-12">
          <mxGeometry relative="1" as="geometry">
            <mxPoint x="430" y="1740" as="targetPoint" />
          </mxGeometry>
        </mxCell>
        <mxCell id="JCffVrnA2vNH0P2Vcq3t-1" value="StorageManager" style="swimlane;fontStyle=1;align=center;verticalAlign=top;childLayout=stackLayout;horizontal=1;startSize=26;horizontalStack=0;resizeParent=1;resizeParentMax=0;resizeLast=0;collapsible=1;marginBottom=0;whiteSpace=wrap;html=1;" parent="1" vertex="1">
          <mxGeometry x="330" y="1970" width="160" height="86" as="geometry" />
        </mxCell>
        <mxCell id="JCffVrnA2vNH0P2Vcq3t-2" value="+ field: type" style="text;strokeColor=none;fillColor=none;align=left;verticalAlign=top;spacingLeft=4;spacingRight=4;overflow=hidden;rotatable=0;points=[[0,0.5],[1,0.5]];portConstraint=eastwest;whiteSpace=wrap;html=1;" parent="JCffVrnA2vNH0P2Vcq3t-1" vertex="1">
          <mxGeometry y="26" width="160" height="26" as="geometry" />
        </mxCell>
        <mxCell id="JCffVrnA2vNH0P2Vcq3t-3" value="" style="line;strokeWidth=1;fillColor=none;align=left;verticalAlign=middle;spacingTop=-1;spacingLeft=3;spacingRight=3;rotatable=0;labelPosition=right;points=[];portConstraint=eastwest;strokeColor=inherit;" parent="JCffVrnA2vNH0P2Vcq3t-1" vertex="1">
          <mxGeometry y="52" width="160" height="8" as="geometry" />
        </mxCell>
        <mxCell id="JCffVrnA2vNH0P2Vcq3t-4" value="+ method(type): type" style="text;strokeColor=none;fillColor=none;align=left;verticalAlign=top;spacingLeft=4;spacingRight=4;overflow=hidden;rotatable=0;points=[[0,0.5],[1,0.5]];portConstraint=eastwest;whiteSpace=wrap;html=1;" parent="JCffVrnA2vNH0P2Vcq3t-1" vertex="1">
          <mxGeometry y="60" width="160" height="26" as="geometry" />
        </mxCell>
        <mxCell id="JCffVrnA2vNH0P2Vcq3t-6" value="1. 初始化默认schema&lt;br&gt;2." style="text;html=1;strokeColor=none;fillColor=none;align=left;verticalAlign=middle;whiteSpace=wrap;rounded=0;" parent="1" vertex="1">
          <mxGeometry x="60" y="120" width="150" height="40" as="geometry" />
        </mxCell>
        <mxCell id="JCffVrnA2vNH0P2Vcq3t-7" value="CreateSchemaInfo" style="swimlane;fontStyle=1;align=center;verticalAlign=top;childLayout=stackLayout;horizontal=1;startSize=26;horizontalStack=0;resizeParent=1;resizeParentMax=0;resizeLast=0;collapsible=1;marginBottom=0;whiteSpace=wrap;html=1;" parent="1" vertex="1">
          <mxGeometry x="520" y="50" width="160" height="86" as="geometry" />
        </mxCell>
        <mxCell id="JCffVrnA2vNH0P2Vcq3t-8" value="+ field: type" style="text;strokeColor=none;fillColor=none;align=left;verticalAlign=top;spacingLeft=4;spacingRight=4;overflow=hidden;rotatable=0;points=[[0,0.5],[1,0.5]];portConstraint=eastwest;whiteSpace=wrap;html=1;" parent="JCffVrnA2vNH0P2Vcq3t-7" vertex="1">
          <mxGeometry y="26" width="160" height="26" as="geometry" />
        </mxCell>
        <mxCell id="JCffVrnA2vNH0P2Vcq3t-9" value="" style="line;strokeWidth=1;fillColor=none;align=left;verticalAlign=middle;spacingTop=-1;spacingLeft=3;spacingRight=3;rotatable=0;labelPosition=right;points=[];portConstraint=eastwest;strokeColor=inherit;" parent="JCffVrnA2vNH0P2Vcq3t-7" vertex="1">
          <mxGeometry y="52" width="160" height="8" as="geometry" />
        </mxCell>
        <mxCell id="JCffVrnA2vNH0P2Vcq3t-10" value="+ method(type): type" style="text;strokeColor=none;fillColor=none;align=left;verticalAlign=top;spacingLeft=4;spacingRight=4;overflow=hidden;rotatable=0;points=[[0,0.5],[1,0.5]];portConstraint=eastwest;whiteSpace=wrap;html=1;" parent="JCffVrnA2vNH0P2Vcq3t-7" vertex="1">
          <mxGeometry y="60" width="160" height="26" as="geometry" />
        </mxCell>
        <mxCell id="JCffVrnA2vNH0P2Vcq3t-11" value="Catalog" style="swimlane;fontStyle=1;align=center;verticalAlign=top;childLayout=stackLayout;horizontal=1;startSize=26;horizontalStack=0;resizeParent=1;resizeParentMax=0;resizeLast=0;collapsible=1;marginBottom=0;whiteSpace=wrap;html=1;" parent="1" vertex="1">
          <mxGeometry x="320" y="2310" width="160" height="86" as="geometry" />
        </mxCell>
        <mxCell id="JCffVrnA2vNH0P2Vcq3t-12" value="+ field: type" style="text;strokeColor=none;fillColor=none;align=left;verticalAlign=top;spacingLeft=4;spacingRight=4;overflow=hidden;rotatable=0;points=[[0,0.5],[1,0.5]];portConstraint=eastwest;whiteSpace=wrap;html=1;" parent="JCffVrnA2vNH0P2Vcq3t-11" vertex="1">
          <mxGeometry y="26" width="160" height="26" as="geometry" />
        </mxCell>
        <mxCell id="JCffVrnA2vNH0P2Vcq3t-13" value="" style="line;strokeWidth=1;fillColor=none;align=left;verticalAlign=middle;spacingTop=-1;spacingLeft=3;spacingRight=3;rotatable=0;labelPosition=right;points=[];portConstraint=eastwest;strokeColor=inherit;" parent="JCffVrnA2vNH0P2Vcq3t-11" vertex="1">
          <mxGeometry y="52" width="160" height="8" as="geometry" />
        </mxCell>
        <mxCell id="JCffVrnA2vNH0P2Vcq3t-14" value="+ method(type): type" style="text;strokeColor=none;fillColor=none;align=left;verticalAlign=top;spacingLeft=4;spacingRight=4;overflow=hidden;rotatable=0;points=[[0,0.5],[1,0.5]];portConstraint=eastwest;whiteSpace=wrap;html=1;" parent="JCffVrnA2vNH0P2Vcq3t-11" vertex="1">
          <mxGeometry y="60" width="160" height="26" as="geometry" />
        </mxCell>
        <mxCell id="JCffVrnA2vNH0P2Vcq3t-15" value="CatalogSet" style="swimlane;fontStyle=1;align=center;verticalAlign=top;childLayout=stackLayout;horizontal=1;startSize=26;horizontalStack=0;resizeParent=1;resizeParentMax=0;resizeLast=0;collapsible=1;marginBottom=0;whiteSpace=wrap;html=1;" parent="1" vertex="1">
          <mxGeometry x="730" y="380" width="160" height="86" as="geometry" />
        </mxCell>
        <mxCell id="JCffVrnA2vNH0P2Vcq3t-16" value="+ field: type" style="text;strokeColor=none;fillColor=none;align=left;verticalAlign=top;spacingLeft=4;spacingRight=4;overflow=hidden;rotatable=0;points=[[0,0.5],[1,0.5]];portConstraint=eastwest;whiteSpace=wrap;html=1;" parent="JCffVrnA2vNH0P2Vcq3t-15" vertex="1">
          <mxGeometry y="26" width="160" height="26" as="geometry" />
        </mxCell>
        <mxCell id="JCffVrnA2vNH0P2Vcq3t-17" value="" style="line;strokeWidth=1;fillColor=none;align=left;verticalAlign=middle;spacingTop=-1;spacingLeft=3;spacingRight=3;rotatable=0;labelPosition=right;points=[];portConstraint=eastwest;strokeColor=inherit;" parent="JCffVrnA2vNH0P2Vcq3t-15" vertex="1">
          <mxGeometry y="52" width="160" height="8" as="geometry" />
        </mxCell>
        <mxCell id="JCffVrnA2vNH0P2Vcq3t-18" value="+ CreateEntry" style="text;strokeColor=none;fillColor=none;align=left;verticalAlign=top;spacingLeft=4;spacingRight=4;overflow=hidden;rotatable=0;points=[[0,0.5],[1,0.5]];portConstraint=eastwest;whiteSpace=wrap;html=1;" parent="JCffVrnA2vNH0P2Vcq3t-15" vertex="1">
          <mxGeometry y="60" width="160" height="26" as="geometry" />
        </mxCell>
        <mxCell id="JCffVrnA2vNH0P2Vcq3t-19" value="DependencyManager" style="swimlane;fontStyle=1;align=center;verticalAlign=top;childLayout=stackLayout;horizontal=1;startSize=26;horizontalStack=0;resizeParent=1;resizeParentMax=0;resizeLast=0;collapsible=1;marginBottom=0;whiteSpace=wrap;html=1;" parent="1" vertex="1">
          <mxGeometry x="60" y="390" width="160" height="86" as="geometry" />
        </mxCell>
        <mxCell id="JCffVrnA2vNH0P2Vcq3t-20" value="+ field: type" style="text;strokeColor=none;fillColor=none;align=left;verticalAlign=top;spacingLeft=4;spacingRight=4;overflow=hidden;rotatable=0;points=[[0,0.5],[1,0.5]];portConstraint=eastwest;whiteSpace=wrap;html=1;" parent="JCffVrnA2vNH0P2Vcq3t-19" vertex="1">
          <mxGeometry y="26" width="160" height="26" as="geometry" />
        </mxCell>
        <mxCell id="JCffVrnA2vNH0P2Vcq3t-21" value="" style="line;strokeWidth=1;fillColor=none;align=left;verticalAlign=middle;spacingTop=-1;spacingLeft=3;spacingRight=3;rotatable=0;labelPosition=right;points=[];portConstraint=eastwest;strokeColor=inherit;" parent="JCffVrnA2vNH0P2Vcq3t-19" vertex="1">
          <mxGeometry y="52" width="160" height="8" as="geometry" />
        </mxCell>
        <mxCell id="JCffVrnA2vNH0P2Vcq3t-22" value="+ method(type): type" style="text;strokeColor=none;fillColor=none;align=left;verticalAlign=top;spacingLeft=4;spacingRight=4;overflow=hidden;rotatable=0;points=[[0,0.5],[1,0.5]];portConstraint=eastwest;whiteSpace=wrap;html=1;" parent="JCffVrnA2vNH0P2Vcq3t-19" vertex="1">
          <mxGeometry y="60" width="160" height="26" as="geometry" />
        </mxCell>
        <mxCell id="JCffVrnA2vNH0P2Vcq3t-23" value="Use" style="endArrow=open;endSize=12;dashed=1;html=1;rounded=0;entryX=0.444;entryY=0.923;entryDx=0;entryDy=0;entryPerimeter=0;exitX=0.5;exitY=0;exitDx=0;exitDy=0;" parent="1" source="JCffVrnA2vNH0P2Vcq3t-11" target="JCffVrnA2vNH0P2Vcq3t-4" edge="1">
          <mxGeometry width="160" relative="1" as="geometry">
            <mxPoint x="320" y="2190" as="sourcePoint" />
            <mxPoint x="480" y="2190" as="targetPoint" />
          </mxGeometry>
        </mxCell>
        <mxCell id="JCffVrnA2vNH0P2Vcq3t-24" value="CatalogType" style="swimlane;fontStyle=1;align=center;verticalAlign=top;childLayout=stackLayout;horizontal=1;startSize=26;horizontalStack=0;resizeParent=1;resizeParentMax=0;resizeLast=0;collapsible=1;marginBottom=0;whiteSpace=wrap;html=1;" parent="1" vertex="1">
          <mxGeometry x="520" y="360" width="160" height="86" as="geometry" />
        </mxCell>
        <mxCell id="JCffVrnA2vNH0P2Vcq3t-25" value="+ field: type" style="text;strokeColor=none;fillColor=none;align=left;verticalAlign=top;spacingLeft=4;spacingRight=4;overflow=hidden;rotatable=0;points=[[0,0.5],[1,0.5]];portConstraint=eastwest;whiteSpace=wrap;html=1;" parent="JCffVrnA2vNH0P2Vcq3t-24" vertex="1">
          <mxGeometry y="26" width="160" height="26" as="geometry" />
        </mxCell>
        <mxCell id="JCffVrnA2vNH0P2Vcq3t-26" value="" style="line;strokeWidth=1;fillColor=none;align=left;verticalAlign=middle;spacingTop=-1;spacingLeft=3;spacingRight=3;rotatable=0;labelPosition=right;points=[];portConstraint=eastwest;strokeColor=inherit;" parent="JCffVrnA2vNH0P2Vcq3t-24" vertex="1">
          <mxGeometry y="52" width="160" height="8" as="geometry" />
        </mxCell>
        <mxCell id="JCffVrnA2vNH0P2Vcq3t-27" value="+ method(type): type" style="text;strokeColor=none;fillColor=none;align=left;verticalAlign=top;spacingLeft=4;spacingRight=4;overflow=hidden;rotatable=0;points=[[0,0.5],[1,0.5]];portConstraint=eastwest;whiteSpace=wrap;html=1;" parent="JCffVrnA2vNH0P2Vcq3t-24" vertex="1">
          <mxGeometry y="60" width="160" height="26" as="geometry" />
        </mxCell>
        <mxCell id="JCffVrnA2vNH0P2Vcq3t-28" value="CatalogType&lt;br&gt;&amp;lt;&amp;lt;enum&amp;gt;&amp;gt;" style="swimlane;fontStyle=0;childLayout=stackLayout;horizontal=1;startSize=26;fillColor=#fff2cc;horizontalStack=0;resizeParent=1;resizeParentMax=0;resizeLast=0;collapsible=1;marginBottom=0;whiteSpace=wrap;html=1;strokeColor=#d6b656;" parent="1" vertex="1">
          <mxGeometry x="1140" y="530" width="180" height="312" as="geometry" />
        </mxCell>
        <mxCell id="JCffVrnA2vNH0P2Vcq3t-32" value="+ INVALID" style="text;strokeColor=none;fillColor=none;align=left;verticalAlign=top;spacingLeft=4;spacingRight=4;overflow=hidden;rotatable=0;points=[[0,0.5],[1,0.5]];portConstraint=eastwest;whiteSpace=wrap;html=1;" parent="JCffVrnA2vNH0P2Vcq3t-28" vertex="1">
          <mxGeometry y="26" width="180" height="26" as="geometry" />
        </mxCell>
        <mxCell id="JCffVrnA2vNH0P2Vcq3t-29" value="+ TABLE" style="text;strokeColor=none;fillColor=none;align=left;verticalAlign=top;spacingLeft=4;spacingRight=4;overflow=hidden;rotatable=0;points=[[0,0.5],[1,0.5]];portConstraint=eastwest;whiteSpace=wrap;html=1;" parent="JCffVrnA2vNH0P2Vcq3t-28" vertex="1">
          <mxGeometry y="52" width="180" height="26" as="geometry" />
        </mxCell>
        <mxCell id="JCffVrnA2vNH0P2Vcq3t-30" value="+ SCHEMA" style="text;strokeColor=none;fillColor=none;align=left;verticalAlign=top;spacingLeft=4;spacingRight=4;overflow=hidden;rotatable=0;points=[[0,0.5],[1,0.5]];portConstraint=eastwest;whiteSpace=wrap;html=1;" parent="JCffVrnA2vNH0P2Vcq3t-28" vertex="1">
          <mxGeometry y="78" width="180" height="26" as="geometry" />
        </mxCell>
        <mxCell id="JCffVrnA2vNH0P2Vcq3t-31" value="+ TABLE_FUNCTION" style="text;strokeColor=none;fillColor=none;align=left;verticalAlign=top;spacingLeft=4;spacingRight=4;overflow=hidden;rotatable=0;points=[[0,0.5],[1,0.5]];portConstraint=eastwest;whiteSpace=wrap;html=1;" parent="JCffVrnA2vNH0P2Vcq3t-28" vertex="1">
          <mxGeometry y="104" width="180" height="26" as="geometry" />
        </mxCell>
        <mxCell id="JCffVrnA2vNH0P2Vcq3t-33" value="+ SCALAR_FUNCTION" style="text;strokeColor=none;fillColor=none;align=left;verticalAlign=top;spacingLeft=4;spacingRight=4;overflow=hidden;rotatable=0;points=[[0,0.5],[1,0.5]];portConstraint=eastwest;whiteSpace=wrap;html=1;" parent="JCffVrnA2vNH0P2Vcq3t-28" vertex="1">
          <mxGeometry y="130" width="180" height="26" as="geometry" />
        </mxCell>
        <mxCell id="JCffVrnA2vNH0P2Vcq3t-34" value="+ VIEW" style="text;strokeColor=none;fillColor=none;align=left;verticalAlign=top;spacingLeft=4;spacingRight=4;overflow=hidden;rotatable=0;points=[[0,0.5],[1,0.5]];portConstraint=eastwest;whiteSpace=wrap;html=1;" parent="JCffVrnA2vNH0P2Vcq3t-28" vertex="1">
          <mxGeometry y="156" width="180" height="26" as="geometry" />
        </mxCell>
        <mxCell id="JCffVrnA2vNH0P2Vcq3t-35" value="+ INDEX" style="text;strokeColor=none;fillColor=none;align=left;verticalAlign=top;spacingLeft=4;spacingRight=4;overflow=hidden;rotatable=0;points=[[0,0.5],[1,0.5]];portConstraint=eastwest;whiteSpace=wrap;html=1;" parent="JCffVrnA2vNH0P2Vcq3t-28" vertex="1">
          <mxGeometry y="182" width="180" height="26" as="geometry" />
        </mxCell>
        <mxCell id="JCffVrnA2vNH0P2Vcq3t-36" value="+ UPDATED_ENTRY" style="text;strokeColor=none;fillColor=none;align=left;verticalAlign=top;spacingLeft=4;spacingRight=4;overflow=hidden;rotatable=0;points=[[0,0.5],[1,0.5]];portConstraint=eastwest;whiteSpace=wrap;html=1;" parent="JCffVrnA2vNH0P2Vcq3t-28" vertex="1">
          <mxGeometry y="208" width="180" height="26" as="geometry" />
        </mxCell>
        <mxCell id="JCffVrnA2vNH0P2Vcq3t-37" value="+ DELETED_ENTRY" style="text;strokeColor=none;fillColor=none;align=left;verticalAlign=top;spacingLeft=4;spacingRight=4;overflow=hidden;rotatable=0;points=[[0,0.5],[1,0.5]];portConstraint=eastwest;whiteSpace=wrap;html=1;" parent="JCffVrnA2vNH0P2Vcq3t-28" vertex="1">
          <mxGeometry y="234" width="180" height="26" as="geometry" />
        </mxCell>
        <mxCell id="JCffVrnA2vNH0P2Vcq3t-38" value="+ PREPARED_STATEMENT" style="text;strokeColor=none;fillColor=none;align=left;verticalAlign=top;spacingLeft=4;spacingRight=4;overflow=hidden;rotatable=0;points=[[0,0.5],[1,0.5]];portConstraint=eastwest;whiteSpace=wrap;html=1;" parent="JCffVrnA2vNH0P2Vcq3t-28" vertex="1">
          <mxGeometry y="260" width="180" height="26" as="geometry" />
        </mxCell>
        <mxCell id="JCffVrnA2vNH0P2Vcq3t-39" value="+ SEQUENCE" style="text;strokeColor=none;fillColor=none;align=left;verticalAlign=top;spacingLeft=4;spacingRight=4;overflow=hidden;rotatable=0;points=[[0,0.5],[1,0.5]];portConstraint=eastwest;whiteSpace=wrap;html=1;" parent="JCffVrnA2vNH0P2Vcq3t-28" vertex="1">
          <mxGeometry y="286" width="180" height="26" as="geometry" />
        </mxCell>
        <mxCell id="F1Cx185upngX10UgLTYr-1" value="" style="group" parent="1" vertex="1" connectable="0">
          <mxGeometry x="1120" y="140" width="200" height="318" as="geometry" />
        </mxCell>
        <mxCell id="JCffVrnA2vNH0P2Vcq3t-40" value="CatalogEntry" style="swimlane;fontStyle=1;align=center;verticalAlign=top;childLayout=stackLayout;horizontal=1;startSize=26;horizontalStack=0;resizeParent=1;resizeParentMax=0;resizeLast=0;collapsible=1;marginBottom=0;whiteSpace=wrap;html=1;fillColor=#fff2cc;strokeColor=#d6b656;" parent="F1Cx185upngX10UgLTYr-1" vertex="1">
          <mxGeometry y="50" width="200" height="268" as="geometry" />
        </mxCell>
        <mxCell id="JCffVrnA2vNH0P2Vcq3t-41" value="+ type: CatalogType" style="text;strokeColor=none;fillColor=none;align=left;verticalAlign=top;spacingLeft=4;spacingRight=4;overflow=hidden;rotatable=0;points=[[0,0.5],[1,0.5]];portConstraint=eastwest;whiteSpace=wrap;html=1;" parent="JCffVrnA2vNH0P2Vcq3t-40" vertex="1">
          <mxGeometry y="26" width="200" height="26" as="geometry" />
        </mxCell>
        <mxCell id="JCffVrnA2vNH0P2Vcq3t-45" value="+ catalog: *Catalog" style="text;strokeColor=none;fillColor=none;align=left;verticalAlign=top;spacingLeft=4;spacingRight=4;overflow=hidden;rotatable=0;points=[[0,0.5],[1,0.5]];portConstraint=eastwest;whiteSpace=wrap;html=1;" parent="JCffVrnA2vNH0P2Vcq3t-40" vertex="1">
          <mxGeometry y="52" width="200" height="26" as="geometry" />
        </mxCell>
        <mxCell id="JCffVrnA2vNH0P2Vcq3t-46" value="+ set: *CatalogSet" style="text;strokeColor=none;fillColor=none;align=left;verticalAlign=top;spacingLeft=4;spacingRight=4;overflow=hidden;rotatable=0;points=[[0,0.5],[1,0.5]];portConstraint=eastwest;whiteSpace=wrap;html=1;" parent="JCffVrnA2vNH0P2Vcq3t-40" vertex="1">
          <mxGeometry y="78" width="200" height="26" as="geometry" />
        </mxCell>
        <mxCell id="JCffVrnA2vNH0P2Vcq3t-47" value="+ name: string" style="text;strokeColor=none;fillColor=none;align=left;verticalAlign=top;spacingLeft=4;spacingRight=4;overflow=hidden;rotatable=0;points=[[0,0.5],[1,0.5]];portConstraint=eastwest;whiteSpace=wrap;html=1;" parent="JCffVrnA2vNH0P2Vcq3t-40" vertex="1">
          <mxGeometry y="104" width="200" height="26" as="geometry" />
        </mxCell>
        <mxCell id="JCffVrnA2vNH0P2Vcq3t-48" value="+ deleted: bool" style="text;strokeColor=none;fillColor=none;align=left;verticalAlign=top;spacingLeft=4;spacingRight=4;overflow=hidden;rotatable=0;points=[[0,0.5],[1,0.5]];portConstraint=eastwest;whiteSpace=wrap;html=1;" parent="JCffVrnA2vNH0P2Vcq3t-40" vertex="1">
          <mxGeometry y="130" width="200" height="26" as="geometry" />
        </mxCell>
        <mxCell id="JCffVrnA2vNH0P2Vcq3t-49" value="+ timestamp: transaction_t" style="text;strokeColor=none;fillColor=none;align=left;verticalAlign=top;spacingLeft=4;spacingRight=4;overflow=hidden;rotatable=0;points=[[0,0.5],[1,0.5]];portConstraint=eastwest;whiteSpace=wrap;html=1;" parent="JCffVrnA2vNH0P2Vcq3t-40" vertex="1">
          <mxGeometry y="156" width="200" height="26" as="geometry" />
        </mxCell>
        <mxCell id="JCffVrnA2vNH0P2Vcq3t-50" value="+ child: unique_ptr&amp;lt;CatalogEntry&amp;gt;" style="text;strokeColor=none;fillColor=none;align=left;verticalAlign=top;spacingLeft=4;spacingRight=4;overflow=hidden;rotatable=0;points=[[0,0.5],[1,0.5]];portConstraint=eastwest;whiteSpace=wrap;html=1;" parent="JCffVrnA2vNH0P2Vcq3t-40" vertex="1">
          <mxGeometry y="182" width="200" height="26" as="geometry" />
        </mxCell>
        <mxCell id="JCffVrnA2vNH0P2Vcq3t-51" value="+ parent: *CatalogEntry" style="text;strokeColor=none;fillColor=none;align=left;verticalAlign=top;spacingLeft=4;spacingRight=4;overflow=hidden;rotatable=0;points=[[0,0.5],[1,0.5]];portConstraint=eastwest;whiteSpace=wrap;html=1;" parent="JCffVrnA2vNH0P2Vcq3t-40" vertex="1">
          <mxGeometry y="208" width="200" height="26" as="geometry" />
        </mxCell>
        <mxCell id="JCffVrnA2vNH0P2Vcq3t-42" value="" style="line;strokeWidth=1;fillColor=none;align=left;verticalAlign=middle;spacingTop=-1;spacingLeft=3;spacingRight=3;rotatable=0;labelPosition=right;points=[];portConstraint=eastwest;strokeColor=inherit;" parent="JCffVrnA2vNH0P2Vcq3t-40" vertex="1">
          <mxGeometry y="234" width="200" height="8" as="geometry" />
        </mxCell>
        <mxCell id="JCffVrnA2vNH0P2Vcq3t-43" value="+ method(type): type" style="text;strokeColor=none;fillColor=none;align=left;verticalAlign=top;spacingLeft=4;spacingRight=4;overflow=hidden;rotatable=0;points=[[0,0.5],[1,0.5]];portConstraint=eastwest;whiteSpace=wrap;html=1;" parent="JCffVrnA2vNH0P2Vcq3t-40" vertex="1">
          <mxGeometry y="242" width="200" height="26" as="geometry" />
        </mxCell>
        <mxCell id="JCffVrnA2vNH0P2Vcq3t-44" value="表示Catalog中的一个条目" style="text;html=1;strokeColor=none;fillColor=none;align=center;verticalAlign=middle;whiteSpace=wrap;rounded=0;" parent="F1Cx185upngX10UgLTYr-1" vertex="1">
          <mxGeometry x="5" width="150" height="40" as="geometry" />
        </mxCell>
        <mxCell id="bfNBOcCzu8RuclXoeiRf-1" value="Block" style="swimlane;fontStyle=1;align=center;verticalAlign=top;childLayout=stackLayout;horizontal=1;startSize=26;horizontalStack=0;resizeParent=1;resizeParentMax=0;resizeLast=0;collapsible=1;marginBottom=0;whiteSpace=wrap;html=1;" parent="1" vertex="1">
          <mxGeometry x="710" y="542" width="160" height="86" as="geometry" />
        </mxCell>
        <mxCell id="bfNBOcCzu8RuclXoeiRf-2" value="+ id: block_id_t" style="text;strokeColor=none;fillColor=none;align=left;verticalAlign=top;spacingLeft=4;spacingRight=4;overflow=hidden;rotatable=0;points=[[0,0.5],[1,0.5]];portConstraint=eastwest;whiteSpace=wrap;html=1;" parent="bfNBOcCzu8RuclXoeiRf-1" vertex="1">
          <mxGeometry y="26" width="160" height="26" as="geometry" />
        </mxCell>
        <mxCell id="bfNBOcCzu8RuclXoeiRf-3" value="" style="line;strokeWidth=1;fillColor=none;align=left;verticalAlign=middle;spacingTop=-1;spacingLeft=3;spacingRight=3;rotatable=0;labelPosition=right;points=[];portConstraint=eastwest;strokeColor=inherit;" parent="bfNBOcCzu8RuclXoeiRf-1" vertex="1">
          <mxGeometry y="52" width="160" height="8" as="geometry" />
        </mxCell>
        <mxCell id="bfNBOcCzu8RuclXoeiRf-4" value="+ method(type): type" style="text;strokeColor=none;fillColor=none;align=left;verticalAlign=top;spacingLeft=4;spacingRight=4;overflow=hidden;rotatable=0;points=[[0,0.5],[1,0.5]];portConstraint=eastwest;whiteSpace=wrap;html=1;" parent="bfNBOcCzu8RuclXoeiRf-1" vertex="1">
          <mxGeometry y="60" width="160" height="26" as="geometry" />
        </mxCell>
        <mxCell id="bfNBOcCzu8RuclXoeiRf-5" value="BlockManager" style="swimlane;fontStyle=1;align=center;verticalAlign=top;childLayout=stackLayout;horizontal=1;startSize=26;horizontalStack=0;resizeParent=1;resizeParentMax=0;resizeLast=0;collapsible=1;marginBottom=0;whiteSpace=wrap;html=1;" parent="1" vertex="1">
          <mxGeometry x="660" y="690" width="260" height="190" as="geometry" />
        </mxCell>
        <mxCell id="bfNBOcCzu8RuclXoeiRf-6" value="+ id: block_id_t" style="text;strokeColor=none;fillColor=none;align=left;verticalAlign=top;spacingLeft=4;spacingRight=4;overflow=hidden;rotatable=0;points=[[0,0.5],[1,0.5]];portConstraint=eastwest;whiteSpace=wrap;html=1;" parent="bfNBOcCzu8RuclXoeiRf-5" vertex="1">
          <mxGeometry y="26" width="260" height="26" as="geometry" />
        </mxCell>
        <mxCell id="bfNBOcCzu8RuclXoeiRf-7" value="" style="line;strokeWidth=1;fillColor=none;align=left;verticalAlign=middle;spacingTop=-1;spacingLeft=3;spacingRight=3;rotatable=0;labelPosition=right;points=[];portConstraint=eastwest;strokeColor=inherit;" parent="bfNBOcCzu8RuclXoeiRf-5" vertex="1">
          <mxGeometry y="52" width="260" height="8" as="geometry" />
        </mxCell>
        <mxCell id="bfNBOcCzu8RuclXoeiRf-8" value="+ CreateBlock( ): unique_ptr&amp;lt;Block&amp;gt;" style="text;strokeColor=none;fillColor=none;align=left;verticalAlign=top;spacingLeft=4;spacingRight=4;overflow=hidden;rotatable=0;points=[[0,0.5],[1,0.5]];portConstraint=eastwest;whiteSpace=wrap;html=1;" parent="bfNBOcCzu8RuclXoeiRf-5" vertex="1">
          <mxGeometry y="60" width="260" height="26" as="geometry" />
        </mxCell>
        <mxCell id="bfNBOcCzu8RuclXoeiRf-9" value="+ GetFreeBlockId( ): block_id_t" style="text;strokeColor=none;fillColor=none;align=left;verticalAlign=top;spacingLeft=4;spacingRight=4;overflow=hidden;rotatable=0;points=[[0,0.5],[1,0.5]];portConstraint=eastwest;whiteSpace=wrap;html=1;" parent="bfNBOcCzu8RuclXoeiRf-5" vertex="1">
          <mxGeometry y="86" width="260" height="26" as="geometry" />
        </mxCell>
        <mxCell id="bfNBOcCzu8RuclXoeiRf-10" value="+ GetMetaBlock( ): block_id_t" style="text;strokeColor=none;fillColor=none;align=left;verticalAlign=top;spacingLeft=4;spacingRight=4;overflow=hidden;rotatable=0;points=[[0,0.5],[1,0.5]];portConstraint=eastwest;whiteSpace=wrap;html=1;" parent="bfNBOcCzu8RuclXoeiRf-5" vertex="1">
          <mxGeometry y="112" width="260" height="26" as="geometry" />
        </mxCell>
        <mxCell id="bfNBOcCzu8RuclXoeiRf-11" value="+ ReadBlock(block: &amp;amp;Block): void" style="text;strokeColor=none;fillColor=none;align=left;verticalAlign=top;spacingLeft=4;spacingRight=4;overflow=hidden;rotatable=0;points=[[0,0.5],[1,0.5]];portConstraint=eastwest;whiteSpace=wrap;html=1;" parent="bfNBOcCzu8RuclXoeiRf-5" vertex="1">
          <mxGeometry y="138" width="260" height="26" as="geometry" />
        </mxCell>
        <mxCell id="bfNBOcCzu8RuclXoeiRf-12" value="+ WriteBlock(block: &amp;amp;Block): void" style="text;strokeColor=none;fillColor=none;align=left;verticalAlign=top;spacingLeft=4;spacingRight=4;overflow=hidden;rotatable=0;points=[[0,0.5],[1,0.5]];portConstraint=eastwest;whiteSpace=wrap;html=1;" parent="bfNBOcCzu8RuclXoeiRf-5" vertex="1">
          <mxGeometry y="164" width="260" height="26" as="geometry" />
        </mxCell>
        <mxCell id="bfNBOcCzu8RuclXoeiRf-42" value="iteration&lt;br&gt;&lt;br&gt;&lt;b style=&quot;&quot;&gt;&lt;i style=&quot;&quot;&gt;&lt;font color=&quot;#330000&quot;&gt;uint64_t&lt;/font&gt;&lt;/i&gt;&lt;/b&gt;" style="rounded=1;whiteSpace=wrap;html=1;fontStyle=0;fontSize=12;fontFamily=Verdana;fillStyle=auto;shadow=0;glass=0;fillColor=#d5e8d4;strokeColor=#82b366;gradientColor=#97d077;" parent="1" vertex="1">
          <mxGeometry x="190" y="1190" width="110" height="80" as="geometry" />
        </mxCell>
        <mxCell id="bfNBOcCzu8RuclXoeiRf-43" value="meta_block&lt;br&gt;&lt;br&gt;&lt;b style=&quot;&quot;&gt;&lt;i style=&quot;&quot;&gt;&lt;font color=&quot;#330000&quot;&gt;block_id_t&lt;/font&gt;&lt;/i&gt;&lt;/b&gt;" style="rounded=1;whiteSpace=wrap;html=1;fontStyle=0;fontSize=12;fontFamily=Verdana;fillStyle=auto;shadow=0;glass=0;fillColor=#f8cecc;strokeColor=#b85450;gradientColor=#ea6b66;" parent="1" vertex="1">
          <mxGeometry x="320" y="1190" width="110" height="80" as="geometry" />
        </mxCell>
        <mxCell id="bfNBOcCzu8RuclXoeiRf-44" value="free_list&lt;br&gt;&lt;br&gt;&lt;b style=&quot;&quot;&gt;&lt;i style=&quot;&quot;&gt;&lt;font color=&quot;#330000&quot;&gt;block_id_t&lt;/font&gt;&lt;/i&gt;&lt;/b&gt;" style="rounded=1;whiteSpace=wrap;html=1;fontStyle=0;fontSize=12;fontFamily=Verdana;fillStyle=auto;shadow=0;glass=0;fillColor=#fff2cc;strokeColor=#d6b656;gradientColor=#ffd966;" parent="1" vertex="1">
          <mxGeometry x="450" y="1190" width="110" height="80" as="geometry" />
        </mxCell>
        <mxCell id="bfNBOcCzu8RuclXoeiRf-45" value="block_count&lt;br&gt;&lt;br&gt;&lt;font color=&quot;#330000&quot;&gt;&lt;b&gt;&lt;i&gt;uint64_t&lt;/i&gt;&lt;/b&gt;&lt;/font&gt;" style="rounded=1;whiteSpace=wrap;html=1;fontStyle=0;fontSize=12;fontFamily=Verdana;fillStyle=auto;shadow=0;glass=0;fillColor=#dae8fc;strokeColor=#6c8ebf;gradientColor=#7ea6e0;" parent="1" vertex="1">
          <mxGeometry x="580" y="1190" width="110" height="80" as="geometry" />
        </mxCell>
        <mxCell id="X76yBTJu6o985zxi9jEF-5" value="SingleFileBlockManager" style="swimlane;fontStyle=1;align=center;verticalAlign=top;childLayout=stackLayout;horizontal=1;startSize=26;horizontalStack=0;resizeParent=1;resizeParentMax=0;resizeLast=0;collapsible=1;marginBottom=0;whiteSpace=wrap;html=1;" vertex="1" parent="1">
          <mxGeometry x="230" y="1630" width="260" height="190" as="geometry" />
        </mxCell>
        <mxCell id="X76yBTJu6o985zxi9jEF-6" value="+ id: block_id_t" style="text;strokeColor=none;fillColor=none;align=left;verticalAlign=top;spacingLeft=4;spacingRight=4;overflow=hidden;rotatable=0;points=[[0,0.5],[1,0.5]];portConstraint=eastwest;whiteSpace=wrap;html=1;" vertex="1" parent="X76yBTJu6o985zxi9jEF-5">
          <mxGeometry y="26" width="260" height="26" as="geometry" />
        </mxCell>
        <mxCell id="X76yBTJu6o985zxi9jEF-7" value="" style="line;strokeWidth=1;fillColor=none;align=left;verticalAlign=middle;spacingTop=-1;spacingLeft=3;spacingRight=3;rotatable=0;labelPosition=right;points=[];portConstraint=eastwest;strokeColor=inherit;" vertex="1" parent="X76yBTJu6o985zxi9jEF-5">
          <mxGeometry y="52" width="260" height="8" as="geometry" />
        </mxCell>
        <mxCell id="X76yBTJu6o985zxi9jEF-8" value="+ CreateBlock( ): unique_ptr&amp;lt;Block&amp;gt;" style="text;strokeColor=none;fillColor=none;align=left;verticalAlign=top;spacingLeft=4;spacingRight=4;overflow=hidden;rotatable=0;points=[[0,0.5],[1,0.5]];portConstraint=eastwest;whiteSpace=wrap;html=1;" vertex="1" parent="X76yBTJu6o985zxi9jEF-5">
          <mxGeometry y="60" width="260" height="26" as="geometry" />
        </mxCell>
        <mxCell id="X76yBTJu6o985zxi9jEF-9" value="+ GetFreeBlockId( ): block_id_t" style="text;strokeColor=none;fillColor=none;align=left;verticalAlign=top;spacingLeft=4;spacingRight=4;overflow=hidden;rotatable=0;points=[[0,0.5],[1,0.5]];portConstraint=eastwest;whiteSpace=wrap;html=1;" vertex="1" parent="X76yBTJu6o985zxi9jEF-5">
          <mxGeometry y="86" width="260" height="26" as="geometry" />
        </mxCell>
        <mxCell id="X76yBTJu6o985zxi9jEF-10" value="+ GetMetaBlock( ): block_id_t" style="text;strokeColor=none;fillColor=none;align=left;verticalAlign=top;spacingLeft=4;spacingRight=4;overflow=hidden;rotatable=0;points=[[0,0.5],[1,0.5]];portConstraint=eastwest;whiteSpace=wrap;html=1;" vertex="1" parent="X76yBTJu6o985zxi9jEF-5">
          <mxGeometry y="112" width="260" height="26" as="geometry" />
        </mxCell>
        <mxCell id="X76yBTJu6o985zxi9jEF-11" value="+ ReadBlock(block: &amp;amp;Block): void" style="text;strokeColor=none;fillColor=none;align=left;verticalAlign=top;spacingLeft=4;spacingRight=4;overflow=hidden;rotatable=0;points=[[0,0.5],[1,0.5]];portConstraint=eastwest;whiteSpace=wrap;html=1;" vertex="1" parent="X76yBTJu6o985zxi9jEF-5">
          <mxGeometry y="138" width="260" height="26" as="geometry" />
        </mxCell>
        <mxCell id="X76yBTJu6o985zxi9jEF-12" value="+ WriteBlock(block: &amp;amp;Block): void" style="text;strokeColor=none;fillColor=none;align=left;verticalAlign=top;spacingLeft=4;spacingRight=4;overflow=hidden;rotatable=0;points=[[0,0.5],[1,0.5]];portConstraint=eastwest;whiteSpace=wrap;html=1;" vertex="1" parent="X76yBTJu6o985zxi9jEF-5">
          <mxGeometry y="164" width="260" height="26" as="geometry" />
        </mxCell>
        <mxCell id="X76yBTJu6o985zxi9jEF-13" value="MetaBlockReader" style="swimlane;fontStyle=1;align=center;verticalAlign=top;childLayout=stackLayout;horizontal=1;startSize=26;horizontalStack=0;resizeParent=1;resizeParentMax=0;resizeLast=0;collapsible=1;marginBottom=0;whiteSpace=wrap;html=1;" vertex="1" parent="1">
          <mxGeometry x="600" y="1590" width="260" height="190" as="geometry" />
        </mxCell>
        <mxCell id="X76yBTJu6o985zxi9jEF-14" value="+ id: block_id_t" style="text;strokeColor=none;fillColor=none;align=left;verticalAlign=top;spacingLeft=4;spacingRight=4;overflow=hidden;rotatable=0;points=[[0,0.5],[1,0.5]];portConstraint=eastwest;whiteSpace=wrap;html=1;" vertex="1" parent="X76yBTJu6o985zxi9jEF-13">
          <mxGeometry y="26" width="260" height="26" as="geometry" />
        </mxCell>
        <mxCell id="X76yBTJu6o985zxi9jEF-15" value="" style="line;strokeWidth=1;fillColor=none;align=left;verticalAlign=middle;spacingTop=-1;spacingLeft=3;spacingRight=3;rotatable=0;labelPosition=right;points=[];portConstraint=eastwest;strokeColor=inherit;" vertex="1" parent="X76yBTJu6o985zxi9jEF-13">
          <mxGeometry y="52" width="260" height="8" as="geometry" />
        </mxCell>
        <mxCell id="X76yBTJu6o985zxi9jEF-16" value="+ CreateBlock( ): unique_ptr&amp;lt;Block&amp;gt;" style="text;strokeColor=none;fillColor=none;align=left;verticalAlign=top;spacingLeft=4;spacingRight=4;overflow=hidden;rotatable=0;points=[[0,0.5],[1,0.5]];portConstraint=eastwest;whiteSpace=wrap;html=1;" vertex="1" parent="X76yBTJu6o985zxi9jEF-13">
          <mxGeometry y="60" width="260" height="26" as="geometry" />
        </mxCell>
        <mxCell id="X76yBTJu6o985zxi9jEF-17" value="+ GetFreeBlockId( ): block_id_t" style="text;strokeColor=none;fillColor=none;align=left;verticalAlign=top;spacingLeft=4;spacingRight=4;overflow=hidden;rotatable=0;points=[[0,0.5],[1,0.5]];portConstraint=eastwest;whiteSpace=wrap;html=1;" vertex="1" parent="X76yBTJu6o985zxi9jEF-13">
          <mxGeometry y="86" width="260" height="26" as="geometry" />
        </mxCell>
        <mxCell id="X76yBTJu6o985zxi9jEF-18" value="+ GetMetaBlock( ): block_id_t" style="text;strokeColor=none;fillColor=none;align=left;verticalAlign=top;spacingLeft=4;spacingRight=4;overflow=hidden;rotatable=0;points=[[0,0.5],[1,0.5]];portConstraint=eastwest;whiteSpace=wrap;html=1;" vertex="1" parent="X76yBTJu6o985zxi9jEF-13">
          <mxGeometry y="112" width="260" height="26" as="geometry" />
        </mxCell>
        <mxCell id="X76yBTJu6o985zxi9jEF-19" value="+ ReadBlock(block: &amp;amp;Block): void" style="text;strokeColor=none;fillColor=none;align=left;verticalAlign=top;spacingLeft=4;spacingRight=4;overflow=hidden;rotatable=0;points=[[0,0.5],[1,0.5]];portConstraint=eastwest;whiteSpace=wrap;html=1;" vertex="1" parent="X76yBTJu6o985zxi9jEF-13">
          <mxGeometry y="138" width="260" height="26" as="geometry" />
        </mxCell>
        <mxCell id="X76yBTJu6o985zxi9jEF-20" value="+ WriteBlock(block: &amp;amp;Block): void" style="text;strokeColor=none;fillColor=none;align=left;verticalAlign=top;spacingLeft=4;spacingRight=4;overflow=hidden;rotatable=0;points=[[0,0.5],[1,0.5]];portConstraint=eastwest;whiteSpace=wrap;html=1;" vertex="1" parent="X76yBTJu6o985zxi9jEF-13">
          <mxGeometry y="164" width="260" height="26" as="geometry" />
        </mxCell>
        <mxCell id="X76yBTJu6o985zxi9jEF-21" value="Deserializer" style="swimlane;fontStyle=1;align=center;verticalAlign=top;childLayout=stackLayout;horizontal=1;startSize=26;horizontalStack=0;resizeParent=1;resizeParentMax=0;resizeLast=0;collapsible=1;marginBottom=0;whiteSpace=wrap;html=1;" vertex="1" parent="1">
          <mxGeometry x="820" y="1810" width="260" height="190" as="geometry" />
        </mxCell>
        <mxCell id="X76yBTJu6o985zxi9jEF-22" value="+ id: block_id_t" style="text;strokeColor=none;fillColor=none;align=left;verticalAlign=top;spacingLeft=4;spacingRight=4;overflow=hidden;rotatable=0;points=[[0,0.5],[1,0.5]];portConstraint=eastwest;whiteSpace=wrap;html=1;" vertex="1" parent="X76yBTJu6o985zxi9jEF-21">
          <mxGeometry y="26" width="260" height="26" as="geometry" />
        </mxCell>
        <mxCell id="X76yBTJu6o985zxi9jEF-23" value="" style="line;strokeWidth=1;fillColor=none;align=left;verticalAlign=middle;spacingTop=-1;spacingLeft=3;spacingRight=3;rotatable=0;labelPosition=right;points=[];portConstraint=eastwest;strokeColor=inherit;" vertex="1" parent="X76yBTJu6o985zxi9jEF-21">
          <mxGeometry y="52" width="260" height="8" as="geometry" />
        </mxCell>
        <mxCell id="X76yBTJu6o985zxi9jEF-24" value="+ CreateBlock( ): unique_ptr&amp;lt;Block&amp;gt;" style="text;strokeColor=none;fillColor=none;align=left;verticalAlign=top;spacingLeft=4;spacingRight=4;overflow=hidden;rotatable=0;points=[[0,0.5],[1,0.5]];portConstraint=eastwest;whiteSpace=wrap;html=1;" vertex="1" parent="X76yBTJu6o985zxi9jEF-21">
          <mxGeometry y="60" width="260" height="26" as="geometry" />
        </mxCell>
        <mxCell id="X76yBTJu6o985zxi9jEF-25" value="+ GetFreeBlockId( ): block_id_t" style="text;strokeColor=none;fillColor=none;align=left;verticalAlign=top;spacingLeft=4;spacingRight=4;overflow=hidden;rotatable=0;points=[[0,0.5],[1,0.5]];portConstraint=eastwest;whiteSpace=wrap;html=1;" vertex="1" parent="X76yBTJu6o985zxi9jEF-21">
          <mxGeometry y="86" width="260" height="26" as="geometry" />
        </mxCell>
        <mxCell id="X76yBTJu6o985zxi9jEF-26" value="+ GetMetaBlock( ): block_id_t" style="text;strokeColor=none;fillColor=none;align=left;verticalAlign=top;spacingLeft=4;spacingRight=4;overflow=hidden;rotatable=0;points=[[0,0.5],[1,0.5]];portConstraint=eastwest;whiteSpace=wrap;html=1;" vertex="1" parent="X76yBTJu6o985zxi9jEF-21">
          <mxGeometry y="112" width="260" height="26" as="geometry" />
        </mxCell>
        <mxCell id="X76yBTJu6o985zxi9jEF-27" value="+ ReadBlock(block: &amp;amp;Block): void" style="text;strokeColor=none;fillColor=none;align=left;verticalAlign=top;spacingLeft=4;spacingRight=4;overflow=hidden;rotatable=0;points=[[0,0.5],[1,0.5]];portConstraint=eastwest;whiteSpace=wrap;html=1;" vertex="1" parent="X76yBTJu6o985zxi9jEF-21">
          <mxGeometry y="138" width="260" height="26" as="geometry" />
        </mxCell>
        <mxCell id="X76yBTJu6o985zxi9jEF-28" value="+ WriteBlock(block: &amp;amp;Block): void" style="text;strokeColor=none;fillColor=none;align=left;verticalAlign=top;spacingLeft=4;spacingRight=4;overflow=hidden;rotatable=0;points=[[0,0.5],[1,0.5]];portConstraint=eastwest;whiteSpace=wrap;html=1;" vertex="1" parent="X76yBTJu6o985zxi9jEF-21">
          <mxGeometry y="164" width="260" height="26" as="geometry" />
        </mxCell>
        <mxCell id="X76yBTJu6o985zxi9jEF-29" value="" style="rounded=0;whiteSpace=wrap;html=1;" vertex="1" parent="1">
          <mxGeometry x="660" y="1350" width="120" height="60" as="geometry" />
        </mxCell>
        <mxCell id="X76yBTJu6o985zxi9jEF-30" value="next_block&lt;br&gt;&lt;br&gt;&lt;b style=&quot;&quot;&gt;&lt;i style=&quot;&quot;&gt;&lt;font color=&quot;#330000&quot;&gt;block_id_t&lt;/font&gt;&lt;/i&gt;&lt;/b&gt;" style="rounded=1;whiteSpace=wrap;html=1;fontStyle=0;fontSize=12;fontFamily=Verdana;fillStyle=auto;shadow=0;glass=0;fillColor=#d5e8d4;strokeColor=#82b366;gradientColor=#97d077;" vertex="1" parent="1">
          <mxGeometry x="190" y="1270" width="110" height="80" as="geometry" />
        </mxCell>
        <mxCell id="X76yBTJu6o985zxi9jEF-31" value="Block" style="text;html=1;strokeColor=none;fillColor=none;align=center;verticalAlign=middle;whiteSpace=wrap;rounded=0;fontSize=18;" vertex="1" parent="1">
          <mxGeometry x="60" y="1295" width="100" height="30" as="geometry" />
        </mxCell>
        <mxCell id="X76yBTJu6o985zxi9jEF-34" value="" style="rounded=0;whiteSpace=wrap;html=1;" vertex="1" parent="1">
          <mxGeometry x="960" y="1040" width="400" height="620" as="geometry" />
        </mxCell>
        <mxCell id="X76yBTJu6o985zxi9jEF-35" value="" style="rounded=0;whiteSpace=wrap;html=1;fillStyle=auto;strokeColor=#0e8088;fillColor=#b0e3e6;" vertex="1" parent="1">
          <mxGeometry x="960" y="1040" width="400" height="120" as="geometry" />
        </mxCell>
        <mxCell id="bfNBOcCzu8RuclXoeiRf-28" value="version_number&lt;b&gt;&lt;br&gt;&lt;/b&gt;" style="rounded=1;whiteSpace=wrap;html=1;fillColor=#e6d0de;strokeColor=#996185;fontStyle=0;fontSize=12;fontFamily=Verdana;fillStyle=auto;shadow=0;glass=0;gradientColor=#d5739d;" parent="1" vertex="1">
          <mxGeometry x="960" y="1040" width="110" height="35" as="geometry" />
        </mxCell>
        <mxCell id="bfNBOcCzu8RuclXoeiRf-32" value="flags" style="rounded=1;whiteSpace=wrap;html=1;fillColor=#d5e8d4;strokeColor=#82b366;fontStyle=0;fontSize=12;fontFamily=Verdana;fillStyle=auto;shadow=0;glass=0;gradientColor=#97d077;" parent="1" vertex="1">
          <mxGeometry x="1070" y="1040" width="220" height="35" as="geometry" />
        </mxCell>
        <mxCell id="bfNBOcCzu8RuclXoeiRf-30" value="MainHeader" style="text;html=1;strokeColor=none;fillColor=none;align=center;verticalAlign=middle;whiteSpace=wrap;rounded=0;fontSize=18;" parent="1" vertex="1">
          <mxGeometry x="1100" y="1099" width="100" height="30" as="geometry" />
        </mxCell>
        <mxCell id="X76yBTJu6o985zxi9jEF-36" value="" style="rounded=0;whiteSpace=wrap;html=1;fillColor=#d0cee2;strokeColor=#56517e;" vertex="1" parent="1">
          <mxGeometry x="960" y="1159" width="400" height="120" as="geometry" />
        </mxCell>
        <mxCell id="X76yBTJu6o985zxi9jEF-37" value="" style="rounded=0;whiteSpace=wrap;html=1;fillColor=#bac8d3;strokeColor=#23445d;" vertex="1" parent="1">
          <mxGeometry x="960" y="1279" width="400" height="120" as="geometry" />
        </mxCell>
        <mxCell id="bfNBOcCzu8RuclXoeiRf-38" value="meta_block" style="rounded=1;whiteSpace=wrap;html=1;fontStyle=0;fontSize=12;fontFamily=Verdana;fillStyle=auto;shadow=0;glass=0;fillColor=#f8cecc;strokeColor=#b85450;gradientColor=#ea6b66;" parent="1" vertex="1">
          <mxGeometry x="1070" y="1160" width="110" height="35" as="geometry" />
        </mxCell>
        <mxCell id="bfNBOcCzu8RuclXoeiRf-39" value="free_list" style="rounded=1;whiteSpace=wrap;html=1;fontStyle=0;fontSize=12;fontFamily=Verdana;fillStyle=auto;shadow=0;glass=0;fillColor=#fff2cc;strokeColor=#d6b656;gradientColor=#ffd966;" parent="1" vertex="1">
          <mxGeometry x="1180" y="1159" width="110" height="35" as="geometry" />
        </mxCell>
        <mxCell id="bfNBOcCzu8RuclXoeiRf-40" value="block_count" style="rounded=1;whiteSpace=wrap;html=1;fontStyle=0;fontSize=12;fontFamily=Verdana;fillStyle=auto;shadow=0;glass=0;fillColor=#dae8fc;strokeColor=#6c8ebf;gradientColor=#7ea6e0;" parent="1" vertex="1">
          <mxGeometry x="960" y="1195" width="110" height="35" as="geometry" />
        </mxCell>
        <mxCell id="bfNBOcCzu8RuclXoeiRf-37" value="iteration" style="rounded=1;whiteSpace=wrap;html=1;fontStyle=0;fontSize=12;fontFamily=Verdana;fillStyle=auto;shadow=0;glass=0;fillColor=#d5e8d4;strokeColor=#82b366;gradientColor=#97d077;" parent="1" vertex="1">
          <mxGeometry x="960" y="1159" width="110" height="35" as="geometry" />
        </mxCell>
        <mxCell id="X76yBTJu6o985zxi9jEF-38" value="meta_block" style="rounded=1;whiteSpace=wrap;html=1;fontStyle=0;fontSize=12;fontFamily=Verdana;fillStyle=auto;shadow=0;glass=0;fillColor=#f8cecc;strokeColor=#b85450;gradientColor=#ea6b66;" vertex="1" parent="1">
          <mxGeometry x="1070" y="1280" width="110" height="35" as="geometry" />
        </mxCell>
        <mxCell id="X76yBTJu6o985zxi9jEF-43" style="edgeStyle=orthogonalEdgeStyle;rounded=0;orthogonalLoop=1;jettySize=auto;html=1;exitX=1;exitY=0.5;exitDx=0;exitDy=0;entryX=1;entryY=0.5;entryDx=0;entryDy=0;curved=1;" edge="1" parent="1" source="X76yBTJu6o985zxi9jEF-39" target="X76yBTJu6o985zxi9jEF-42">
          <mxGeometry relative="1" as="geometry">
            <Array as="points">
              <mxPoint x="1440" y="1297" />
              <mxPoint x="1440" y="1570" />
            </Array>
          </mxGeometry>
        </mxCell>
        <mxCell id="X76yBTJu6o985zxi9jEF-39" value="free_list" style="rounded=1;whiteSpace=wrap;html=1;fontStyle=0;fontSize=12;fontFamily=Verdana;fillStyle=auto;shadow=0;glass=0;fillColor=#fff2cc;strokeColor=#d6b656;gradientColor=#ffd966;" vertex="1" parent="1">
          <mxGeometry x="1180" y="1279" width="110" height="35" as="geometry" />
        </mxCell>
        <mxCell id="X76yBTJu6o985zxi9jEF-40" value="block_count" style="rounded=1;whiteSpace=wrap;html=1;fontStyle=0;fontSize=12;fontFamily=Verdana;fillStyle=auto;shadow=0;glass=0;fillColor=#dae8fc;strokeColor=#6c8ebf;gradientColor=#7ea6e0;" vertex="1" parent="1">
          <mxGeometry x="960" y="1315" width="110" height="35" as="geometry" />
        </mxCell>
        <mxCell id="X76yBTJu6o985zxi9jEF-41" value="iteration" style="rounded=1;whiteSpace=wrap;html=1;fontStyle=0;fontSize=12;fontFamily=Verdana;fillStyle=auto;shadow=0;glass=0;fillColor=#d5e8d4;strokeColor=#82b366;gradientColor=#97d077;" vertex="1" parent="1">
          <mxGeometry x="960" y="1279" width="110" height="35" as="geometry" />
        </mxCell>
        <mxCell id="X76yBTJu6o985zxi9jEF-42" value="" style="rounded=0;whiteSpace=wrap;html=1;fillColor=#fad7ac;strokeColor=#b46504;" vertex="1" parent="1">
          <mxGeometry x="960" y="1510" width="400" height="120" as="geometry" />
        </mxCell>
        <mxCell id="bfNBOcCzu8RuclXoeiRf-41" value="DatabaseHeader" style="text;html=1;strokeColor=none;fillColor=none;align=center;verticalAlign=middle;whiteSpace=wrap;rounded=0;fontSize=18;" parent="1" vertex="1">
          <mxGeometry x="1110" y="1340" width="100" height="30" as="geometry" />
        </mxCell>
        <mxCell id="bfNBOcCzu8RuclXoeiRf-46" value="DatabaseHeader" style="text;html=1;strokeColor=none;fillColor=none;align=center;verticalAlign=middle;whiteSpace=wrap;rounded=0;fontSize=18;" parent="1" vertex="1">
          <mxGeometry x="1110" y="1220" width="100" height="30" as="geometry" />
        </mxCell>
        <mxCell id="X76yBTJu6o985zxi9jEF-44" value="block count" style="rounded=1;whiteSpace=wrap;html=1;fontStyle=0;fontSize=12;fontFamily=Verdana;fillStyle=auto;shadow=0;glass=0;fillColor=#f5f5f5;strokeColor=#666666;gradientColor=#b3b3b3;" vertex="1" parent="1">
          <mxGeometry x="960" y="1510" width="110" height="35" as="geometry" />
        </mxCell>
        <mxCell id="X76yBTJu6o985zxi9jEF-45" value="next block 1" style="rounded=1;whiteSpace=wrap;html=1;fontStyle=0;fontSize=12;fontFamily=Verdana;fillStyle=auto;shadow=0;glass=0;fillColor=#f5f5f5;strokeColor=#666666;gradientColor=#b3b3b3;" vertex="1" parent="1">
          <mxGeometry x="1070" y="1510" width="110" height="35" as="geometry" />
        </mxCell>
        <mxCell id="X76yBTJu6o985zxi9jEF-46" value="next block 2" style="rounded=1;whiteSpace=wrap;html=1;fontStyle=0;fontSize=12;fontFamily=Verdana;fillStyle=auto;shadow=0;glass=0;fillColor=#f5f5f5;strokeColor=#666666;gradientColor=#b3b3b3;" vertex="1" parent="1">
          <mxGeometry x="1180" y="1510" width="110" height="35" as="geometry" />
        </mxCell>
        <mxCell id="X76yBTJu6o985zxi9jEF-47" value="next block 3" style="rounded=1;whiteSpace=wrap;html=1;fontStyle=0;fontSize=12;fontFamily=Verdana;fillStyle=auto;shadow=0;glass=0;fillColor=#f5f5f5;strokeColor=#666666;gradientColor=#b3b3b3;" vertex="1" parent="1">
          <mxGeometry x="960" y="1545" width="110" height="35" as="geometry" />
        </mxCell>
        <mxCell id="X76yBTJu6o985zxi9jEF-48" value="..." style="rounded=1;whiteSpace=wrap;html=1;fontStyle=1;fontSize=12;fontFamily=Verdana;fillStyle=auto;shadow=0;glass=0;fillColor=#f5f5f5;strokeColor=#666666;gradientColor=#b3b3b3;" vertex="1" parent="1">
          <mxGeometry x="1070" y="1545" width="110" height="35" as="geometry" />
        </mxCell>
      </root>
    </mxGraphModel>
  </diagram>
</mxfile>
